<svg xmlns="http://www.w3.org/2000/svg" viewBox="0 0 464 424"><title>help2</title><path d="M121.59,448c-10,0-18-2.73-24-8.12A28.33,28.33,0,0,1,88,418.36a26.13,26.13,0,0,1,7.64-19.1c3.43-3.39,9.65-7.44,19.73-7.44a81.61,81.61,0,0,1,11.47,1.06h.1a119.37,119.37,0,0,0,18.16,1.47c3.76,0,8.69-.55,10.81-3.18.78-1,5-7.22,10.81-35.36L194,224.43H157.65l8.72-41.27h36.21c5.7-26.16,12.08-45.87,19.44-60,8.72-16.8,20.34-30.3,34.54-40.14,14.69-10.19,29.15-15.35,43-15.35,9.83,0,17.77,2.74,23.6,8.15A28.29,28.29,0,0,1,325.65,115a24.89,24.89,0,0,1-19,8.48c-3.31,0-9-.49-23.54-4.26a39.76,39.76,0,0,0-7.74-1.38c-.44.24-2.65,1.64-5.79,7.42-4.65,8.56-8.5,20.68-11.44,36l-4.31,21.89h40l-7.75,41.27H245.19L223.76,329.16C215.88,366.8,202.86,396,185,416,166.07,437.23,144.73,448,121.59,448Zm-7.28-27.75ZM304,97Z" transform="translate(-24 -48)"/><polygon points="63 0 105 0 105 63 168 63 168 105 105 105 105 168 63 168 63 105 0 105 0 63 63 63 63 0" style="fill:#29abe2"/><polygon points="356 208 356 424 464 316 356 208" style="fill:#39b54a"/><rect x="234.5" y="329.5" width="94.5" height="94.5" style="fill:#39b54a"/><rect x="234.5" y="208" width="94.5" height="94.5" style="fill:#39b54a"/></svg>